<?xml version="1.0" encoding="utf-8"?>
<!-- Generator: Adobe Illustrator 23.0.0, SVG Export Plug-In . SVG Version: 6.00 Build 0)  -->
<svg version="1.1" id="Layer_1" xmlns="http://www.w3.org/2000/svg" xmlns:xlink="http://www.w3.org/1999/xlink" x="0px" y="0px"
	 viewBox="0 0 167.8 30" style="enable-background:new 0 0 167.8 30;" xml:space="preserve">
<style type="text/css">
	.st0{fill:#FF2746;}
	.st1{fill:#3829FF;}
</style>
<path class="st0" d="M6.9,0.5c1.3-0.1,2.7,0.1,4,0.3C11.5,0.9,12,1.5,12,2.1s-0.3,1.2-0.7,1.6C9.7,2.9,7.9,2.5,6.2,2.4
	C5.4,2.3,4.5,2.6,3.8,3.1c-1,1.1-0.9,2.8,0.1,3.8c0.9,0.7,2,1.2,3.1,1.5c1.5,0.4,2.9,1,4.1,1.9c1,0.9,1.6,2.1,1.5,3.4
	c0.1,1.6-0.6,3-1.8,4c-1.7,1-3.6,1.5-5.5,1.3c-1.3,0-2.7-0.1-4-0.4C0.4,18.4,0,17.9,0,17.2c0-0.6,0.3-1.2,0.8-1.6
	C2.5,16.5,4.3,17,6.2,17c1,0.1,1.9-0.1,2.8-0.6c0.6-0.5,0.9-1.2,0.8-2c0.1-0.9-0.4-1.8-1.2-2.4c-1.2-0.7-2.4-1.2-3.8-1.6
	c-1.3-0.3-2.6-1-3.6-1.9c-0.7-0.8-1.1-1.9-1.1-3C0,4.1,0.7,2.7,1.8,1.8C3.4,0.9,5.2,0.4,6.9,0.5z"/>
<path class="st0" d="M21.2,19c-2.2,0-3.7-0.5-4.6-1.4c-0.9-0.9-1.4-2.5-1.4-4.7c-0.1-2,0.5-4,1.7-5.6c1.4-1.4,3.3-2.1,5.3-1.9
	c0.8,0,1.7,0.1,2.5,0.3c0.5,0.1,0.8,0.5,0.8,1c0,0.6-0.2,1.1-0.5,1.5c-1-0.6-2.2-0.9-3.4-1c-1-0.1-2,0.3-2.6,1.2
	c-0.6,1.1-0.9,2.4-0.8,3.7c-0.1,1.3,0.2,2.7,0.8,3.9c0.6,0.9,1.7,1.4,2.7,1.3c1.2-0.1,2.4-0.4,3.5-1c0.3,0.4,0.4,0.8,0.4,1.2
	c0,0.5-0.5,0.9-1.4,1.2C23.3,18.9,22.2,19,21.2,19z"/>
<path class="st0" d="M32.2,17.4h1.4c0.1,0.2,0.2,0.5,0.2,0.7s0,0.4-0.2,0.5c-0.1,0.1-0.4,0.2-0.6,0.2h-5.2c-0.1-0.3-0.2-0.5-0.2-0.8
	c0-0.2,0-0.3,0.1-0.4c0.1-0.1,0.3-0.2,0.5-0.1h1c0.1-1.2,0.1-2.7,0.1-4.3c0-2,0-3.3,0-4c0-0.5-0.1-0.9-0.2-1.4
	c-0.1-0.2-0.3-0.4-0.5-0.5s-0.5-0.1-0.8-0.1c-0.1-0.2-0.2-0.4-0.2-0.6c0-0.3,0.2-0.6,0.5-0.7c0.7-0.1,1.3-0.1,2-0.1
	c0.5,0,0.9,0,1.4,0.1c0.3,0.1,0.4,0.2,0.4,0.4c0,0.3,0.1,0.6,0.1,0.9v6C32.1,14.7,32.1,16.2,32.2,17.4z M30.3,3.4
	c-0.5,0-0.9-0.1-1.3-0.3c-0.3-0.3-0.4-0.6-0.4-1c0-0.4,0.2-0.9,0.5-1.2c0.4-0.3,0.9-0.5,1.5-0.4c0.5,0,0.9,0.1,1.3,0.4
	c0.3,0.3,0.4,0.6,0.4,1c0,0.4-0.2,0.9-0.5,1.2C31.4,3.3,30.9,3.5,30.3,3.4L30.3,3.4z"/>
<path class="st0" d="M41.6,5.5c1.3-0.1,2.6,0.3,3.6,1.2c0.9,1.1,1.3,2.4,1.2,3.8c0.1,0.6-0.1,1.2-0.4,1.6c-0.5,0.4-1.2,0.5-1.8,0.5
	h-5.8c0,1.2,0.2,2.4,0.9,3.4c0.7,0.9,1.9,1.4,3,1.2c1.3,0,2.6-0.3,3.7-1c0.3,0.3,0.6,0.7,0.6,1.2c0,0.6-0.5,1-1.5,1.2
	C44,18.9,42.9,19,41.8,19c-2.2,0-3.9-0.5-4.8-1.4c-1-1-1.5-2.6-1.5-4.8C35.4,10.9,36,9,37.2,7.5C38.2,6.1,39.9,5.4,41.6,5.5z
	 M41.1,7.3c-0.8,0-1.5,0.3-2,0.9c-0.5,0.9-0.8,1.9-0.8,3h1.4c1.4,0,2.4,0,3-0.1s0.8-0.2,0.9-0.3c0.1-0.2,0.2-0.5,0.1-0.7
	c0-0.7-0.2-1.4-0.7-2C42.6,7.5,41.9,7.2,41.1,7.3z"/>
<path class="st0" d="M52.5,7.3c0.8-0.5,1.7-1,2.6-1.3c0.7-0.2,1.5-0.4,2.3-0.4c1-0.1,1.9,0.2,2.7,0.8c0.7,0.9,1,2,0.9,3.1
	c-0.1,2.5,0,5,0.2,7.5c0.1,0.3,0.4,0.4,0.9,0.4c0.1,0.2,0.1,0.5,0.2,0.8c0,0.2-0.1,0.4-0.2,0.5c-0.3,0.1-0.5,0.1-0.8,0.1
	c-1.2,0-2,0-2.2,0s-0.4-0.1-0.6-0.3c-0.1-0.2-0.2-0.5-0.2-0.8V12c0.1-1.2-0.1-2.5-0.6-3.6c-0.4-0.6-1.1-1-1.8-0.9
	c-0.7,0-1.3,0.2-1.9,0.6c-0.6,0.6-0.9,1.4-0.8,2.2v2.8c0,1.6,0,3,0.1,4.3h1.4c0.1,0.2,0.2,0.5,0.2,0.7s0,0.4-0.1,0.5
	c-0.3,0.1-0.5,0.2-0.7,0.2h-5.2c-0.1-0.3-0.2-0.5-0.2-0.8c0-0.2,0-0.3,0.2-0.4c0.1-0.1,0.3-0.2,0.5-0.1h0.9c0.1-1.4,0.1-3.1,0.1-5.1
	c0.1-1.5,0-3-0.3-4.5c-0.2-0.4-0.7-0.7-1.2-0.6c-0.1-0.2-0.2-0.5-0.2-0.8c0-0.2,0.1-0.4,0.3-0.5c1.2-0.1,2.3-0.2,3.5-0.2
	C52.6,6.2,52.6,6.7,52.5,7.3z"/>
<path class="st0" d="M70,19c-2.2,0-3.7-0.5-4.6-1.4S64,15.1,64,12.9c-0.1-2,0.5-4,1.7-5.6C67.1,5.9,69,5.2,71,5.4
	c0.8,0,1.7,0.1,2.5,0.3c0.5,0.1,0.8,0.5,0.8,1c0,0.6-0.2,1.1-0.6,1.5c-1-0.6-2.2-0.9-3.4-1c-1-0.1-2,0.3-2.6,1.2
	c-0.6,1.1-0.9,2.4-0.8,3.7c-0.1,1.3,0.2,2.7,0.8,3.9c0.6,0.9,1.7,1.4,2.8,1.3c1.2-0.1,2.4-0.4,3.5-1c0.3,0.4,0.4,0.8,0.4,1.2
	c0,0.5-0.4,0.9-1.4,1.2C72.1,18.9,71,19,70,19z"/>
<g>
	<path class="st1" d="M82,7.3c-0.8,0-1.5,0.3-2,0.9c-0.5,0.9-0.8,1.9-0.8,3h1.4c1.4,0,2.4,0,2.9-0.1s0.8-0.2,0.9-0.3
		c0.1-0.2,0.2-0.5,0.1-0.7c0-0.7-0.2-1.4-0.7-2C83.4,7.5,82.7,7.2,82,7.3z"/>
	<path class="st1" d="M82.8,3.9c-4.9,0-8.9,4-8.9,8.9s4,8.9,8.9,8.9s8.9-4,8.9-8.9S87.7,3.9,82.8,3.9z M80.1,16
		c0.7,0.9,1.9,1.4,3,1.2c1.3,0,2.6-0.3,3.7-1c0.3,0.3,0.6,0.7,0.6,1.2c0,0.6-0.5,1-1.5,1.2c-1.1,0.3-2.2,0.4-3.3,0.4
		c-2.2,0-3.9-0.5-4.8-1.4c-1-1-1.5-2.6-1.5-4.8C76.2,10.9,76.8,9,78,7.5c1.2-1.3,2.8-2,4.6-2c1.3-0.1,2.6,0.3,3.6,1.2
		c0.9,1.1,1.3,2.4,1.2,3.8c0.1,0.6-0.1,1.2-0.4,1.6c-0.5,0.4-1.2,0.5-1.9,0.5h-5.8C79.2,13.8,79.5,14.9,80.1,16z"/>
</g>
<path class="st0" d="M101.7,17.4h1.9c0.1,0.2,0.2,0.5,0.2,0.8c0,0.2,0,0.3-0.1,0.5c-0.1,0.1-0.3,0.1-0.5,0.1H97
	c-0.1-0.3-0.2-0.5-0.2-0.8c0-0.1,0-0.3,0.1-0.4c0.1-0.1,0.3-0.1,0.4-0.1h1.2c0.1-1.2,0.1-4.4,0.1-9.4c0-2.7,0-4.7-0.1-5.9H97
	c-0.1-0.3-0.2-0.5-0.2-0.8c0-0.1,0-0.3,0.1-0.4s0.3-0.1,0.5-0.1h5.7c2.7,0,4.6,0.4,5.7,1.1c1.2,0.8,1.8,2.1,1.7,3.5
	c0,2.4-1.5,4.1-4.4,5c0.8,0.2,1.5,0.7,2,1.4c0.7,0.9,1.2,1.9,1.6,2.9c0.3,0.8,0.8,1.6,1.4,2.3c0.4,0.3,0.9,0.4,1.4,0.4
	c0.2,0.6,0.2,1.1-0.1,1.3c-0.5,0.3-1.1,0.4-1.7,0.3c-0.8,0.1-1.5-0.1-2.3-0.4c-0.5-0.3-0.9-1.3-1.4-2.9c-0.3-1.3-0.8-2.5-1.6-3.5
	c-0.6-0.7-1.5-1.1-2.4-1c-0.5,0-1.1,0-1.6,0.1C101.6,14.3,101.7,16.3,101.7,17.4z M101.6,9.5h1.1c1.2,0.1,2.4-0.2,3.5-0.8
	c0.8-0.5,1.2-1.4,1.2-2.4c0.1-1-0.3-2-1.1-2.7c-0.9-0.6-2-1-3.1-0.9c-0.5,0-1,0-1.5,0.1c-0.1,0.8-0.1,2.5-0.1,5.3V9.5z"/>
<path class="st0" d="M120.5,5.5c1.3-0.1,2.6,0.3,3.6,1.2c0.9,1.1,1.3,2.4,1.2,3.8c0.1,0.6-0.1,1.2-0.4,1.6c-0.5,0.4-1.2,0.5-1.9,0.5
	h-5.8c-0.1,1.2,0.2,2.4,0.9,3.4c0.7,0.9,1.9,1.4,3,1.2c1.3,0,2.6-0.3,3.7-1c0.3,0.3,0.6,0.7,0.6,1.2c0,0.6-0.5,1-1.5,1.2
	c-1.1,0.3-2.2,0.4-3.3,0.4c-2.2,0-3.9-0.5-4.8-1.4c-1-1-1.5-2.6-1.5-4.8c-0.1-1.9,0.5-3.8,1.7-5.3C117.1,6.1,118.8,5.4,120.5,5.5z
	 M120,7.3c-0.8,0-1.5,0.3-2,0.9c-0.5,0.9-0.8,1.9-0.8,3h1.4c1.4,0,2.4,0,2.9-0.1s0.8-0.2,0.9-0.3c0.1-0.2,0.2-0.5,0.1-0.7
	c0-0.7-0.2-1.4-0.7-2C121.4,7.5,120.7,7.2,120,7.3L120,7.3z"/>
<path class="st0" d="M135.6,17.7c-0.7,0.4-1.5,0.8-2.3,1c-0.7,0.2-1.5,0.3-2.3,0.3c-1,0.1-1.9-0.2-2.6-0.8c-0.6-0.7-0.9-1.6-0.9-2.5
	c-0.1-1.2,0.5-2.4,1.4-3.1c1.3-0.8,2.9-1.2,4.4-1.1h1.9c0-1.1-0.2-2.2-0.7-3.2c-0.5-0.7-1.3-1-2.1-0.9c-0.5,0-1,0-1.5,0.2
	c-0.1,0.3-0.3,0.6-0.4,0.8c-0.2,0.1-0.5,0.2-0.8,0.2c-0.5,0.1-0.8,0.1-1-0.1c-0.2-0.3-0.4-0.6-0.6-0.9c-0.2-0.3-0.3-0.7-0.3-1
	c0-0.2,0.1-0.3,0.2-0.4c0.6-0.2,1.2-0.3,1.8-0.4c1.1-0.1,2.2-0.2,3.3-0.2c1.2-0.1,2.4,0.2,3.4,0.8c0.9,0.7,1.3,1.9,1.1,3v4.1
	c-0.1,1.2,0,2.3,0.2,3.4c0.1,0.4,0.4,0.6,0.8,0.5l0,0c0.1,0.2,0.2,0.4,0.2,0.6c0,0.3-0.2,0.5-0.6,0.7c-0.5,0.2-1,0.3-1.5,0.2
	c-0.2,0-0.5,0-0.7-0.1C136,18.6,135.7,18.1,135.6,17.7z M135.3,13.2c-0.8-0.1-1.6-0.2-2.4-0.2c-0.7-0.1-1.5,0.1-2.1,0.5
	c-0.4,0.4-0.6,1-0.6,1.6s0.1,1.1,0.5,1.6c0.5,0.4,1.1,0.6,1.7,0.5c0.6,0,1.1-0.1,1.6-0.3s0.8-0.5,1-1c0.2-0.6,0.3-1.3,0.2-1.9
	L135.3,13.2z"/>
<path class="st0" d="M150,17.7c-0.7,0.4-1.5,0.8-2.2,1s-1.4,0.3-2.1,0.3c-1.3,0.1-2.6-0.4-3.4-1.3c-0.8-0.9-1.2-2.5-1.2-4.7
	c-0.1-2,0.4-4,1.6-5.6c1.2-1.3,3-2.1,4.8-1.9c0.8,0,1.5,0.1,2.3,0.3c0-0.7,0-1.3,0-2.1c0-0.5-0.1-1.1-0.2-1.6
	c-0.1-0.3-0.2-0.5-0.5-0.6s-0.5-0.1-0.8-0.1c-0.1-0.3-0.2-0.5-0.2-0.8c0-0.2,0.1-0.4,0.3-0.5c0.7-0.1,1.5-0.1,2.2-0.1
	c0.5,0,0.9,0,1.4,0.1c0.2,0,0.4,0.2,0.4,0.4c0,0.3,0.1,0.6,0.1,0.9v9.4c-0.1,2,0,3.9,0.2,5.9c0.1,0.6,0.4,0.8,0.7,0.7
	c0.1,0.2,0.2,0.4,0.2,0.6c0,0.2-0.3,0.5-0.9,0.7c-0.5,0.2-0.9,0.3-1.4,0.3c-0.2,0-0.4-0.1-0.6-0.2C150.4,18.5,150.2,18.1,150,17.7z
	 M147,7.3c-0.9-0.1-1.8,0.3-2.3,1.1c-0.6,1.2-0.8,2.5-0.7,3.8c-0.1,1.3,0.2,2.6,0.7,3.7c0.4,0.9,1.3,1.4,2.3,1.3
	c0.5,0,1.1-0.1,1.6-0.3c0.4-0.2,0.7-0.5,0.9-0.9c0.2-0.9,0.3-1.8,0.3-2.7V7.9c-0.4-0.2-0.8-0.4-1.2-0.5C148,7.3,147.5,7.3,147,7.3
	L147,7.3z"/>
<path class="st0" d="M166.8,7.3c-0.4,1.3-1.3,4-2.5,8.1c-1.3,4.1-2.2,6.6-2.8,7.3c-0.5,0.7-1.2,1.2-2.1,1.4
	c-0.9,0.2-1.7,0.3-2.6,0.3c-0.6,0-1.3,0-1.9-0.2c-0.3-0.1-0.5-0.5-0.4-0.8c0-0.5,0.2-0.9,0.4-1.3c1.2,0.3,2.4,0.4,3.6,0.4
	c0.8-0.1,1.6-1.3,2.3-3.8c-0.4,0-0.8,0-1.2-0.1c-0.1,0-0.5-1.5-1.4-4.4s-1.4-4.7-1.6-5.3c-0.1-0.5-0.3-0.9-0.5-1.3
	c-0.1-0.2-0.3-0.4-0.5-0.5S155.1,7,154.8,7c-0.1-0.3-0.2-0.5-0.2-0.8s0.2-0.5,0.4-0.5c0.6-0.1,1.2-0.1,1.8-0.1c0.5,0,1,0,1.4,0.1
	c0.2,0.1,0.4,0.2,0.5,0.5c0.2,0.6,0.3,1.2,0.4,1.9c0.2,1,0.6,2.7,1.3,5.1c0.3,1.2,0.6,2.4,1.1,3.6c0.5-1.3,0.9-2.7,1.2-4.1
	c0.7-2.7,1.1-4.5,1.2-5.4h-0.4c-0.1-0.2-0.2-0.5-0.2-0.8c0-0.2,0-0.4,0.1-0.5s0.3-0.2,0.5-0.2h3.7c0.1,0.2,0.2,0.5,0.2,0.8
	c0,0.2,0,0.4-0.2,0.5s-0.4,0.2-0.6,0.2L166.8,7.3z"/>
<path class="st1" d="M114.9,26.9h2.3v-2.1h0.8v5.3h-0.8v-2.5h-2.3v2.5h-0.8v-5.3h0.8C114.9,24.8,114.9,26.9,114.9,26.9z"/>
<path class="st1" d="M121.8,26c0-0.1-0.1-0.3-0.2-0.3c-0.2-0.1-0.4-0.2-0.6-0.2c-0.5,0-0.8,0.3-0.8,0.6c0,0.2,0,0.4,0.6,0.7l0.5,0.2
	c1,0.4,1.3,1,1.3,1.6c0,0.9-0.7,1.7-1.6,1.7h-0.1c-0.5,0-0.9-0.2-1.3-0.5c-0.3-0.3-0.4-0.6-0.4-1l0.8-0.2c0,0.2,0.1,0.5,0.2,0.7
	c0.2,0.2,0.4,0.3,0.7,0.3c0.5,0,0.9-0.4,0.9-0.8c0,0,0,0,0-0.1c0-0.4-0.3-0.8-0.8-0.9l-0.5-0.2c-0.6-0.2-1.1-0.7-1.1-1.3
	c0-0.8,0.7-1.4,1.5-1.4h0.1c0.4,0,0.8,0.1,1.1,0.4c0.2,0.1,0.3,0.3,0.4,0.5L121.8,26z"/>
<path class="st1" d="M127.7,26c-0.4-0.4-0.9-0.6-1.4-0.6c-1,0-1.9,0.8-1.9,1.9v0.1c0,1.1,0.8,2,1.8,2c0.1,0,0.1,0,0.2,0
	c0.5,0,1.1-0.2,1.4-0.6v1c-0.4,0.3-1,0.4-1.5,0.4c-0.7,0-1.4-0.3-1.9-0.7c-0.6-0.5-0.9-1.2-0.9-2s0.3-1.5,0.9-2.1
	c0.5-0.5,1.2-0.7,1.9-0.7c0.5,0,1,0.1,1.4,0.4V26z"/>
<path class="st1" d="M131.5,24.8c0.5,0,1,0.1,1.4,0.3c0.4,0.3,0.6,0.8,0.6,1.3c0,0.7-0.5,1.4-1.2,1.5l1.7,2.3h-1l-1.5-2.2h-0.1v2.2
	h-0.9v-5.4H131.5z M131.4,27.3h0.3c0.2,0,1.1,0,1.1-0.9s-0.7-0.8-1.1-0.8h-0.3V27.3z"/>
<path class="st1" d="M137.7,29.4c-0.1,0.2-0.3,0.5-0.6,0.6c-0.3,0.2-0.6,0.3-1,0.3s-0.8-0.1-1.1-0.4c-0.3-0.3-0.5-0.8-0.5-1.3
	s0.2-1,0.5-1.4c0.3-0.3,0.7-0.5,1.1-0.5c0.4,0,0.8,0.1,1.1,0.4c0.3,0.4,0.5,0.9,0.5,1.4v0.1h-2.4c0,0.3,0.1,0.5,0.3,0.7
	c0.3,0.3,0.8,0.3,1.1,0c0.1-0.1,0.2-0.2,0.3-0.4L137.7,29.4z M136.9,28c0-0.2-0.1-0.3-0.2-0.5c-0.1-0.1-0.3-0.2-0.5-0.2
	s-0.4,0.1-0.6,0.2c-0.1,0.1-0.2,0.3-0.2,0.4L136.9,28z"/>
<path class="st1" d="M140.2,27.6c-0.1-0.2-0.3-0.3-0.5-0.3c-0.1,0-0.2,0-0.2,0.1c0,0-0.1,0.1-0.1,0.2c0,0.1,0.1,0.2,0.1,0.2
	c0.1,0.1,0.2,0.1,0.3,0.1l0.4,0.2c0.2,0.1,0.3,0.2,0.5,0.3c0.2,0.2,0.3,0.4,0.3,0.6c0,0.3-0.1,0.6-0.3,0.8c-0.2,0.3-0.6,0.4-0.9,0.4
	c-0.3,0-0.5-0.1-0.7-0.2c-0.2-0.2-0.3-0.4-0.4-0.6l0.6-0.3c0,0.1,0.1,0.2,0.2,0.3c0.1,0.1,0.2,0.1,0.4,0.1c0.1,0,0.2,0,0.3-0.1
	s0.1-0.2,0.1-0.3s0-0.2-0.1-0.3s-0.2-0.2-0.3-0.2l-0.3-0.1c-0.2-0.1-0.3-0.2-0.5-0.3s-0.2-0.4-0.2-0.6c0-0.3,0.1-0.5,0.3-0.7
	s0.5-0.3,0.8-0.3c0.2,0,0.4,0.1,0.6,0.2c0.2,0.1,0.3,0.2,0.4,0.4L140.2,27.6z"/>
<path class="st1" d="M145.2,28.5c0,1-0.8,1.8-1.8,1.8s-1.8-0.8-1.8-1.8s0.8-1.8,1.8-1.8l0,0C144.3,26.6,145.1,27.4,145.2,28.5
	C145.2,28.4,145.2,28.4,145.2,28.5z M144.4,28.5c0-0.6-0.5-1-1.1-0.9c-0.6,0-1,0.5-0.9,1.1c0,0.5,0.5,0.9,1,0.9
	C143.9,29.5,144.4,29.1,144.4,28.5L144.4,28.5z"/>
<path class="st1" d="M146.9,26.8v1.9c0,0.2,0,0.4,0.1,0.6c0.1,0.2,0.3,0.2,0.5,0.2s0.4-0.1,0.5-0.2c0.1-0.2,0.2-0.4,0.1-0.6v-1.9
	h0.8v2c0,0.4-0.1,0.8-0.4,1.1c-0.3,0.3-0.7,0.4-1.1,0.4c-0.4,0-0.8-0.2-1-0.5c-0.3-0.3-0.4-0.7-0.4-1.1v-1.9H146.9z"/>
<path class="st1" d="M150.1,26.8h0.8v0.3c0.1-0.1,0.2-0.2,0.3-0.3s0.3-0.1,0.5-0.1s0.4,0,0.6,0.2l-0.3,0.7c-0.1-0.1-0.3-0.1-0.4-0.1
	c-0.2,0-0.4,0.1-0.5,0.2c-0.2,0.2-0.2,0.5-0.2,0.8v1.8h-0.8L150.1,26.8z"/>
<path class="st1" d="M155.5,27.8c-0.2-0.3-0.6-0.4-0.9-0.4c-0.3,0-0.6,0.1-0.8,0.3s-0.3,0.5-0.3,0.8s0.1,0.6,0.3,0.8
	s0.4,0.3,0.7,0.3c0.4,0,0.7-0.2,1-0.4v0.9c-0.3,0.2-0.6,0.3-1,0.3c-0.5,0-0.9-0.2-1.3-0.5c-0.3-0.3-0.5-0.8-0.5-1.3
	c0-1,0.7-1.8,1.7-1.8c0.1,0,0.1,0,0.2,0c0.3,0,0.6,0.1,0.9,0.2L155.5,27.8z"/>
<path class="st1" d="M159.4,29.4c-0.1,0.2-0.3,0.5-0.6,0.6c-0.3,0.2-0.6,0.3-1,0.3s-0.8-0.1-1.1-0.4c-0.3-0.3-0.5-0.8-0.5-1.3
	s0.2-1,0.5-1.4c0.3-0.3,0.7-0.5,1.1-0.5c0.4,0,0.8,0.1,1.1,0.4c0.3,0.4,0.5,0.9,0.5,1.4v0.1H157c0,0.3,0.1,0.5,0.3,0.7
	s0.4,0.2,0.6,0.2c0.2,0,0.4-0.1,0.5-0.2c0.1-0.1,0.2-0.2,0.3-0.4L159.4,29.4z M158.6,28c0-0.2-0.1-0.3-0.2-0.5
	c-0.1-0.1-0.3-0.2-0.5-0.2s-0.4,0.1-0.6,0.2c-0.1,0.1-0.2,0.3-0.2,0.4L158.6,28z"/>
<path class="st1" d="M161.9,27.6c-0.1-0.2-0.3-0.3-0.5-0.3c-0.1,0-0.2,0-0.2,0.1c0,0-0.1,0.1-0.1,0.2c0,0.1,0,0.2,0.1,0.2
	c0.1,0.1,0.2,0.1,0.3,0.1l0.4,0.2c0.2,0.1,0.3,0.2,0.5,0.3c0.2,0.2,0.3,0.4,0.3,0.6c0,0.3-0.1,0.6-0.3,0.8c-0.3,0.3-0.6,0.4-1,0.4
	c-0.3,0-0.5-0.1-0.7-0.2c-0.2-0.2-0.4-0.4-0.4-0.6l0.6-0.3c0,0.1,0.1,0.2,0.2,0.3c0.1,0.1,0.2,0.1,0.3,0.1s0.2,0,0.3-0.1
	s0.1-0.2,0.1-0.3s0-0.2-0.1-0.3s-0.2-0.2-0.3-0.2l-0.3-0.1c-0.2-0.1-0.3-0.2-0.5-0.3s-0.2-0.4-0.2-0.6c0-0.6,0.4-1,1-1h0.1
	c0.2,0,0.4,0.1,0.6,0.2c0.2,0.1,0.3,0.2,0.4,0.4L161.9,27.6z"/>
</svg>
