<?xml version="1.0" encoding="utf-8"?>
<!-- Generator: Adobe Illustrator 23.0.0, SVG Export Plug-In . SVG Version: 6.00 Build 0)  -->
<svg version="1.1" id="Layer_1" xmlns="http://www.w3.org/2000/svg" xmlns:xlink="http://www.w3.org/1999/xlink" x="0px" y="0px"
	 viewBox="0 0 188 82" style="enable-background:new 0 0 188 82;" xml:space="preserve">
<style type="text/css">
	.st0{opacity:0.3;fill:none;stroke:#FFFFFF;stroke-miterlimit:10;}
	.st1{opacity:0.6;fill:none;stroke:#FFFFFF;stroke-miterlimit:10;}
	.st2{opacity:0.9;fill:none;stroke:#FFFFFF;stroke-miterlimit:10;}
	.st3{fill:#FFFFFF;}
</style>
<ellipse transform="matrix(8.176460e-02 -0.9967 0.9967 8.176460e-02 43.2302 128.9399)" class="st0" cx="91.6" cy="41" rx="36.1" ry="15.1"/>
<ellipse transform="matrix(0.4018 -0.9157 0.9157 0.4018 15.8053 106.9227)" class="st1" cx="89.7" cy="41.4" rx="15.1" ry="37"/>
<ellipse transform="matrix(0.8009 -0.5987 0.5987 0.8009 -6.9777 64.1697)" class="st2" cx="93" cy="42.6" rx="36.9" ry="14.6"/>
<path class="st3" d="M17.4,30.7c1.3-0.1,2.7,0.1,4,0.3c0.6,0.1,1.1,0.7,1.1,1.3c0,0.6-0.3,1.2-0.7,1.6c-1.6-0.8-3.4-1.2-5.1-1.3
	c-0.8-0.1-1.7,0.2-2.4,0.7c-1,1.1-0.9,2.8,0.1,3.8c0.9,0.7,2,1.2,3.1,1.5c1.5,0.4,2.9,1,4.1,1.9c1,0.9,1.6,2.1,1.5,3.4
	c0.1,1.6-0.6,3-1.8,4c-1.7,1-3.6,1.5-5.5,1.3c-1.3,0-2.7-0.1-4-0.4c-0.9-0.2-1.3-0.7-1.3-1.4c0-0.6,0.3-1.2,0.8-1.6
	c1.7,0.9,3.5,1.4,5.4,1.4c1,0.1,1.9-0.1,2.8-0.6c0.6-0.5,0.9-1.2,0.8-2c0.1-0.9-0.4-1.8-1.2-2.4c-1.2-0.7-2.4-1.2-3.8-1.6
	c-1.3-0.3-2.6-1-3.6-1.9c-0.7-0.8-1.1-1.9-1.1-3c-0.1-1.4,0.6-2.8,1.7-3.7C13.9,31.1,15.7,30.6,17.4,30.7z"/>
<path class="st3" d="M31.7,49.2c-2.2,0-3.7-0.5-4.6-1.4s-1.4-2.5-1.4-4.7c-0.1-2,0.5-4,1.7-5.6c1.4-1.4,3.3-2.1,5.3-1.9
	c0.8,0,1.7,0.1,2.5,0.3c0.5,0.1,0.8,0.5,0.8,1c0,0.6-0.2,1.1-0.5,1.5c-1-0.6-2.2-0.9-3.4-1c-1-0.1-2,0.3-2.6,1.2
	c-0.6,1.1-0.9,2.4-0.8,3.7c-0.1,1.3,0.2,2.7,0.8,3.9c0.6,0.9,1.7,1.4,2.7,1.3c1.2-0.1,2.4-0.4,3.5-1c0.3,0.4,0.4,0.8,0.4,1.2
	c0,0.5-0.5,0.9-1.4,1.2C33.8,49.1,32.7,49.2,31.7,49.2z"/>
<path class="st3" d="M42.7,47.6h1.4c0.1,0.2,0.2,0.5,0.2,0.7c0,0.2,0,0.4-0.2,0.5C44,48.9,43.7,49,43.5,49h-5.2
	c-0.1-0.3-0.2-0.5-0.2-0.8c0-0.2,0-0.3,0.1-0.4c0.1-0.1,0.3-0.2,0.5-0.1h1c0.1-1.2,0.1-2.7,0.1-4.3c0-2,0-3.3,0-4
	c0-0.5-0.1-0.9-0.2-1.4c-0.1-0.2-0.3-0.4-0.5-0.5c-0.2-0.1-0.5-0.1-0.8-0.1c-0.1-0.2-0.2-0.4-0.2-0.6c0-0.3,0.2-0.6,0.5-0.7
	c0.7-0.1,1.3-0.1,2-0.1c0.5,0,0.9,0,1.4,0.1c0.3,0.1,0.4,0.2,0.4,0.4c0,0.3,0.1,0.6,0.1,0.9v6C42.6,44.9,42.6,46.4,42.7,47.6z
	 M40.8,33.6c-0.5,0-0.9-0.1-1.3-0.3c-0.3-0.3-0.4-0.6-0.4-1c0-0.4,0.2-0.9,0.5-1.2c0.4-0.3,0.9-0.5,1.5-0.4c0.5,0,0.9,0.1,1.3,0.4
	c0.3,0.3,0.4,0.6,0.4,1c0,0.4-0.2,0.9-0.5,1.2C41.9,33.5,41.4,33.7,40.8,33.6L40.8,33.6z"/>
<path class="st3" d="M52.1,35.7c1.3-0.1,2.6,0.3,3.6,1.2c0.9,1.1,1.3,2.4,1.2,3.8c0.1,0.6-0.1,1.2-0.4,1.6c-0.5,0.4-1.2,0.5-1.8,0.5
	h-5.8c0,1.2,0.2,2.4,0.9,3.4c0.7,0.9,1.9,1.4,3,1.2c1.3,0,2.6-0.3,3.7-1c0.3,0.3,0.6,0.7,0.6,1.2c0,0.6-0.5,1-1.5,1.2
	c-1.1,0.3-2.2,0.4-3.3,0.4c-2.2,0-3.9-0.5-4.8-1.4c-1-1-1.5-2.6-1.5-4.8c-0.1-1.9,0.5-3.8,1.7-5.3C48.7,36.3,50.4,35.6,52.1,35.7z
	 M51.6,37.5c-0.8,0-1.5,0.3-2,0.9c-0.5,0.9-0.8,1.9-0.8,3h1.4c1.4,0,2.4,0,3-0.1s0.8-0.2,0.9-0.3c0.1-0.2,0.2-0.5,0.1-0.7
	c0-0.7-0.2-1.4-0.7-2C53.1,37.7,52.4,37.4,51.6,37.5z"/>
<path class="st3" d="M63,37.5c0.8-0.5,1.7-1,2.6-1.3c0.7-0.2,1.5-0.4,2.3-0.4c1-0.1,1.9,0.2,2.7,0.8c0.7,0.9,1,2,0.9,3.1
	c-0.1,2.5,0,5,0.2,7.5c0.1,0.3,0.4,0.4,0.9,0.4c0.1,0.2,0.1,0.5,0.2,0.8c0,0.2-0.1,0.4-0.2,0.5c-0.3,0.1-0.5,0.1-0.8,0.1
	c-1.2,0-2,0-2.2,0c-0.2,0-0.4-0.1-0.6-0.3c-0.1-0.2-0.2-0.5-0.2-0.8v-5.7c0.1-1.2-0.1-2.5-0.6-3.6c-0.4-0.6-1.1-1-1.8-0.9
	c-0.7,0-1.3,0.2-1.9,0.6c-0.6,0.6-0.9,1.4-0.8,2.2v2.8c0,1.6,0,3,0.1,4.3h1.4c0.1,0.2,0.2,0.5,0.2,0.7c0,0.2,0,0.4-0.1,0.5
	C65,48.9,64.8,49,64.6,49h-5.2c-0.1-0.3-0.2-0.5-0.2-0.8c0-0.2,0-0.3,0.2-0.4c0.1-0.1,0.3-0.2,0.5-0.1h0.9c0.1-1.4,0.1-3.1,0.1-5.1
	c0.1-1.5,0-3-0.3-4.5c-0.2-0.4-0.7-0.7-1.2-0.6c-0.1-0.2-0.2-0.5-0.2-0.8c0-0.2,0.1-0.4,0.3-0.5c1.2-0.1,2.3-0.2,3.5-0.2
	C63.1,36.4,63.1,36.9,63,37.5z"/>
<path class="st3" d="M80.5,49.2c-2.2,0-3.7-0.5-4.6-1.4s-1.4-2.5-1.4-4.7c-0.1-2,0.5-4,1.7-5.6c1.4-1.4,3.3-2.1,5.3-1.9
	c0.8,0,1.7,0.1,2.5,0.3c0.5,0.1,0.8,0.5,0.8,1c0,0.6-0.2,1.1-0.6,1.5c-1-0.6-2.2-0.9-3.4-1c-1-0.1-2,0.3-2.6,1.2
	c-0.6,1.1-0.9,2.4-0.8,3.7c-0.1,1.3,0.2,2.7,0.8,3.9c0.6,0.9,1.7,1.4,2.8,1.3c1.2-0.1,2.4-0.4,3.5-1c0.3,0.4,0.4,0.8,0.4,1.2
	c0,0.5-0.4,0.9-1.4,1.2C82.6,49.1,81.5,49.2,80.5,49.2z"/>
<g>
	<path class="st3" d="M92.5,37.5c-0.8,0-1.5,0.3-2,0.9c-0.5,0.9-0.8,1.9-0.8,3h1.4c1.4,0,2.4,0,2.9-0.1c0.5-0.1,0.8-0.2,0.9-0.3
		c0.1-0.2,0.2-0.5,0.1-0.7c0-0.7-0.2-1.4-0.7-2C93.9,37.7,93.2,37.4,92.5,37.5z"/>
	<path class="st3" d="M93.3,34.1c-4.9,0-8.9,4-8.9,8.9s4,8.9,8.9,8.9c4.9,0,8.9-4,8.9-8.9S98.2,34.1,93.3,34.1z M90.6,46.2
		c0.7,0.9,1.9,1.4,3,1.2c1.3,0,2.6-0.3,3.7-1c0.3,0.3,0.6,0.7,0.6,1.2c0,0.6-0.5,1-1.5,1.2c-1.1,0.3-2.2,0.4-3.3,0.4
		c-2.2,0-3.9-0.5-4.8-1.4c-1-1-1.5-2.6-1.5-4.8c-0.1-1.9,0.5-3.8,1.7-5.3c1.2-1.3,2.8-2,4.6-2c1.3-0.1,2.6,0.3,3.6,1.2
		c0.9,1.1,1.3,2.4,1.2,3.8c0.1,0.6-0.1,1.2-0.4,1.6c-0.5,0.4-1.2,0.5-1.9,0.5h-5.8C89.7,44,90,45.1,90.6,46.2z"/>
</g>
<path class="st3" d="M112.2,47.6h1.9c0.1,0.2,0.2,0.5,0.2,0.8c0,0.2,0,0.3-0.1,0.5c-0.1,0.1-0.3,0.1-0.5,0.1h-6.2
	c-0.1-0.3-0.2-0.5-0.2-0.8c0-0.1,0-0.3,0.1-0.4c0.1-0.1,0.3-0.1,0.4-0.1h1.2c0.1-1.2,0.1-4.4,0.1-9.4c0-2.7,0-4.7-0.1-5.9h-1.5
	c-0.1-0.3-0.2-0.5-0.2-0.8c0-0.1,0-0.3,0.1-0.4c0.1-0.1,0.3-0.1,0.5-0.1h5.7c2.7,0,4.6,0.4,5.7,1.1c1.2,0.8,1.8,2.1,1.7,3.5
	c0,2.4-1.5,4.1-4.4,5c0.8,0.2,1.5,0.7,2,1.4c0.7,0.9,1.2,1.9,1.6,2.9c0.3,0.8,0.8,1.6,1.4,2.3c0.4,0.3,0.9,0.4,1.4,0.4
	c0.2,0.6,0.2,1.1-0.1,1.3c-0.5,0.3-1.1,0.4-1.7,0.3c-0.8,0.1-1.5-0.1-2.3-0.4c-0.5-0.3-0.9-1.3-1.4-2.9c-0.3-1.3-0.8-2.5-1.6-3.5
	c-0.6-0.7-1.5-1.1-2.4-1c-0.5,0-1.1,0-1.6,0.1C112.1,44.5,112.2,46.5,112.2,47.6z M112.1,39.7h1.1c1.2,0.1,2.4-0.2,3.5-0.8
	c0.8-0.5,1.2-1.4,1.2-2.4c0.1-1-0.3-2-1.1-2.7c-0.9-0.6-2-1-3.1-0.9c-0.5,0-1,0-1.5,0.1c-0.1,0.8-0.1,2.5-0.1,5.3L112.1,39.7z"/>
<path class="st3" d="M131,35.7c1.3-0.1,2.6,0.3,3.6,1.2c0.9,1.1,1.3,2.4,1.2,3.8c0.1,0.6-0.1,1.2-0.4,1.6c-0.5,0.4-1.2,0.5-1.9,0.5
	h-5.8c-0.1,1.2,0.2,2.4,0.9,3.4c0.7,0.9,1.9,1.4,3,1.2c1.3,0,2.6-0.3,3.7-1c0.3,0.3,0.6,0.7,0.6,1.2c0,0.6-0.5,1-1.5,1.2
	c-1.1,0.3-2.2,0.4-3.3,0.4c-2.2,0-3.9-0.5-4.8-1.4c-1-1-1.5-2.6-1.5-4.8c-0.1-1.9,0.5-3.8,1.7-5.3C127.6,36.3,129.3,35.6,131,35.7z
	 M130.5,37.5c-0.8,0-1.5,0.3-2,0.9c-0.5,0.9-0.8,1.9-0.8,3h1.4c1.4,0,2.4,0,2.9-0.1c0.5-0.1,0.8-0.2,0.9-0.3
	c0.1-0.2,0.2-0.5,0.1-0.7c0-0.7-0.2-1.4-0.7-2C131.9,37.7,131.2,37.4,130.5,37.5L130.5,37.5z"/>
<path class="st3" d="M146.1,47.9c-0.7,0.4-1.5,0.8-2.3,1c-0.7,0.2-1.5,0.3-2.3,0.3c-1,0.1-1.9-0.2-2.6-0.8c-0.6-0.7-0.9-1.6-0.9-2.5
	c-0.1-1.2,0.5-2.4,1.4-3.1c1.3-0.8,2.9-1.2,4.4-1.1h1.9c0-1.1-0.2-2.2-0.7-3.2c-0.5-0.7-1.3-1-2.1-0.9c-0.5,0-1,0-1.5,0.2
	c-0.1,0.3-0.3,0.6-0.4,0.8c-0.2,0.1-0.5,0.2-0.8,0.2c-0.5,0.1-0.8,0.1-1-0.1c-0.2-0.3-0.4-0.6-0.6-0.9c-0.2-0.3-0.3-0.7-0.3-1
	c0-0.2,0.1-0.3,0.2-0.4c0.6-0.2,1.2-0.3,1.8-0.4c1.1-0.1,2.2-0.2,3.3-0.2c1.2-0.1,2.4,0.2,3.4,0.8c0.9,0.7,1.3,1.9,1.1,3v4.1
	c-0.1,1.2,0,2.3,0.2,3.4c0.1,0.4,0.4,0.6,0.8,0.5c0,0,0,0,0,0c0.1,0.2,0.2,0.4,0.2,0.6c0,0.3-0.2,0.5-0.6,0.7
	c-0.5,0.2-1,0.3-1.5,0.2c-0.2,0-0.5,0-0.7-0.1C146.5,48.8,146.2,48.3,146.1,47.9z M145.8,43.4c-0.8-0.1-1.6-0.2-2.4-0.2
	c-0.7-0.1-1.5,0.1-2.1,0.5c-0.4,0.4-0.6,1-0.6,1.6c0,0.6,0.1,1.1,0.5,1.6c0.5,0.4,1.1,0.6,1.7,0.5c0.6,0,1.1-0.1,1.6-0.3
	c0.5-0.2,0.8-0.5,1-1c0.2-0.6,0.3-1.3,0.2-1.9L145.8,43.4z"/>
<path class="st3" d="M160.5,47.9c-0.7,0.4-1.5,0.8-2.2,1c-0.7,0.2-1.4,0.3-2.1,0.3c-1.3,0.1-2.6-0.4-3.4-1.3
	c-0.8-0.9-1.2-2.5-1.2-4.7c-0.1-2,0.4-4,1.6-5.6c1.2-1.3,3-2.1,4.8-1.9c0.8,0,1.5,0.1,2.3,0.3c0-0.7,0-1.3,0-2.1
	c0-0.5-0.1-1.1-0.2-1.6c-0.1-0.3-0.2-0.5-0.5-0.6c-0.3-0.1-0.5-0.1-0.8-0.1c-0.1-0.3-0.2-0.5-0.2-0.8c0-0.2,0.1-0.4,0.3-0.5
	c0.7-0.1,1.5-0.1,2.2-0.1c0.5,0,0.9,0,1.4,0.1c0.2,0,0.4,0.2,0.4,0.4c0,0.3,0.1,0.6,0.1,0.9V41c-0.1,2,0,3.9,0.2,5.9
	c0.1,0.6,0.4,0.8,0.7,0.7c0.1,0.2,0.2,0.4,0.2,0.6c0,0.2-0.3,0.5-0.9,0.7c-0.5,0.2-0.9,0.3-1.4,0.3c-0.2,0-0.4-0.1-0.6-0.2
	C160.9,48.7,160.7,48.3,160.5,47.9z M157.5,37.5c-0.9-0.1-1.8,0.3-2.3,1.1c-0.6,1.2-0.8,2.5-0.7,3.8c-0.1,1.3,0.2,2.6,0.7,3.7
	c0.4,0.9,1.3,1.4,2.3,1.3c0.5,0,1.1-0.1,1.6-0.3c0.4-0.2,0.7-0.5,0.9-0.9c0.2-0.9,0.3-1.8,0.3-2.7v-5.4c-0.4-0.2-0.8-0.4-1.2-0.5
	C158.5,37.5,158,37.5,157.5,37.5L157.5,37.5z"/>
<path class="st3" d="M177.3,37.5c-0.4,1.3-1.3,4-2.5,8.1c-1.3,4.1-2.2,6.6-2.8,7.3c-0.5,0.7-1.2,1.2-2.1,1.4
	c-0.9,0.2-1.7,0.3-2.6,0.3c-0.6,0-1.3,0-1.9-0.2c-0.3-0.1-0.5-0.5-0.4-0.8c0-0.5,0.2-0.9,0.4-1.3c1.2,0.3,2.4,0.4,3.6,0.4
	c0.8-0.1,1.6-1.3,2.3-3.8c-0.4,0-0.8,0-1.2-0.1c-0.1,0-0.5-1.5-1.4-4.4c-0.9-2.9-1.4-4.7-1.6-5.3c-0.1-0.5-0.3-0.9-0.5-1.3
	c-0.1-0.2-0.3-0.4-0.5-0.5c-0.2-0.1-0.5-0.1-0.8-0.1c-0.1-0.3-0.2-0.5-0.2-0.8c0-0.3,0.2-0.5,0.4-0.5c0.6-0.1,1.2-0.1,1.8-0.1
	c0.5,0,1,0,1.4,0.1c0.2,0.1,0.4,0.2,0.5,0.5c0.2,0.6,0.3,1.2,0.4,1.9c0.2,1,0.6,2.7,1.3,5.1c0.3,1.2,0.6,2.4,1.1,3.6
	c0.5-1.3,0.9-2.7,1.2-4.1c0.7-2.7,1.1-4.5,1.2-5.4H174c-0.1-0.2-0.2-0.5-0.2-0.8c0-0.2,0-0.4,0.1-0.5c0.1-0.1,0.3-0.2,0.5-0.2h3.7
	c0.1,0.2,0.2,0.5,0.2,0.8c0,0.2,0,0.4-0.2,0.5c-0.2,0.1-0.4,0.2-0.6,0.2L177.3,37.5z"/>
<path class="st3" d="M125.4,57.1h2.3V55h0.8v5.3h-0.8v-2.5h-2.3v2.5h-0.8V55h0.8V57.1z"/>
<path class="st3" d="M132.3,56.2c0-0.1-0.1-0.3-0.2-0.3c-0.2-0.1-0.4-0.2-0.6-0.2c-0.5,0-0.8,0.3-0.8,0.6c0,0.2,0,0.4,0.6,0.7
	l0.5,0.2c1,0.4,1.3,1,1.3,1.6c0,0.9-0.7,1.7-1.6,1.7c0,0-0.1,0-0.1,0c-0.5,0-0.9-0.2-1.3-0.5c-0.3-0.3-0.4-0.6-0.4-1l0.8-0.2
	c0,0.2,0.1,0.5,0.2,0.7c0.2,0.2,0.4,0.3,0.7,0.3c0.5,0,0.9-0.4,0.9-0.8c0,0,0,0,0-0.1c0-0.4-0.3-0.8-0.8-0.9l-0.5-0.2
	c-0.6-0.2-1.1-0.7-1.1-1.3c0-0.8,0.7-1.4,1.5-1.4c0,0,0.1,0,0.1,0c0.4,0,0.8,0.1,1.1,0.4c0.2,0.1,0.3,0.3,0.4,0.5L132.3,56.2z"/>
<path class="st3" d="M138.2,56.2c-0.4-0.4-0.9-0.6-1.4-0.6c-1,0-1.9,0.8-1.9,1.9c0,0,0,0.1,0,0.1c0,1.1,0.8,2,1.8,2
	c0.1,0,0.1,0,0.2,0c0.5,0,1.1-0.2,1.4-0.6v1c-0.4,0.3-1,0.4-1.5,0.4c-0.7,0-1.4-0.3-1.9-0.7c-0.6-0.5-0.9-1.2-0.9-2
	c0-0.8,0.3-1.5,0.9-2.1c0.5-0.5,1.2-0.7,1.9-0.7c0.5,0,1,0.1,1.4,0.4L138.2,56.2z"/>
<path class="st3" d="M142,55c0.5,0,1,0.1,1.4,0.3c0.4,0.3,0.6,0.8,0.6,1.3c0,0.7-0.5,1.4-1.2,1.5l1.7,2.3h-1l-1.5-2.2h-0.1v2.2H141
	V55H142z M141.9,57.5h0.3c0.2,0,1.1,0,1.1-0.9s-0.7-0.8-1.1-0.8h-0.3V57.5z"/>
<path class="st3" d="M148.2,59.6c-0.1,0.2-0.3,0.5-0.6,0.6c-0.3,0.2-0.6,0.3-1,0.3c-0.4,0-0.8-0.1-1.1-0.4c-0.3-0.3-0.5-0.8-0.5-1.3
	c0-0.5,0.2-1,0.5-1.4c0.3-0.3,0.7-0.5,1.1-0.5c0.4,0,0.8,0.1,1.1,0.4c0.3,0.4,0.5,0.9,0.5,1.4v0.1h-2.4c0,0.3,0.1,0.5,0.3,0.7
	c0.3,0.3,0.8,0.3,1.1,0c0.1-0.1,0.2-0.2,0.3-0.4L148.2,59.6z M147.4,58.2c0-0.2-0.1-0.3-0.2-0.5c-0.1-0.1-0.3-0.2-0.5-0.2
	c-0.2,0-0.4,0.1-0.6,0.2c-0.1,0.1-0.2,0.3-0.2,0.4L147.4,58.2z"/>
<path class="st3" d="M150.7,57.8c-0.1-0.2-0.3-0.3-0.5-0.3c-0.1,0-0.2,0-0.2,0.1c0,0-0.1,0.1-0.1,0.2c0,0.1,0.1,0.2,0.1,0.2
	c0.1,0.1,0.2,0.1,0.3,0.1l0.4,0.2c0.2,0.1,0.3,0.2,0.5,0.3c0.2,0.2,0.3,0.4,0.3,0.6c0,0.3-0.1,0.6-0.3,0.8c-0.2,0.3-0.6,0.4-0.9,0.4
	c-0.3,0-0.5-0.1-0.7-0.2c-0.2-0.2-0.3-0.4-0.4-0.6l0.6-0.3c0,0.1,0.1,0.2,0.2,0.3c0.1,0.1,0.2,0.1,0.4,0.1c0.1,0,0.2,0,0.3-0.1
	c0.1-0.1,0.1-0.2,0.1-0.3c0-0.1,0-0.2-0.1-0.3c-0.1-0.1-0.2-0.2-0.3-0.2l-0.3-0.1c-0.2-0.1-0.3-0.2-0.5-0.3
	c-0.2-0.1-0.2-0.4-0.2-0.6c0-0.3,0.1-0.5,0.3-0.7c0.2-0.2,0.5-0.3,0.8-0.3c0.2,0,0.4,0.1,0.6,0.2c0.2,0.1,0.3,0.2,0.4,0.4
	L150.7,57.8z"/>
<path class="st3" d="M155.7,58.7c0,1-0.8,1.8-1.8,1.8c-1,0-1.8-0.8-1.8-1.8c0-1,0.8-1.8,1.8-1.8c0,0,0,0,0,0
	C154.8,56.8,155.6,57.6,155.7,58.7C155.7,58.6,155.7,58.6,155.7,58.7z M154.9,58.7c0-0.6-0.5-1-1.1-0.9c-0.6,0-1,0.5-0.9,1.1
	c0,0.5,0.5,0.9,1,0.9C154.4,59.7,154.9,59.3,154.9,58.7C154.9,58.7,154.9,58.7,154.9,58.7z"/>
<path class="st3" d="M157.4,57v1.9c0,0.2,0,0.4,0.1,0.6c0.1,0.2,0.3,0.2,0.5,0.2c0.2,0,0.4-0.1,0.5-0.2c0.1-0.2,0.2-0.4,0.1-0.6V57
	h0.8v2c0,0.4-0.1,0.8-0.4,1.1c-0.3,0.3-0.7,0.4-1.1,0.4c-0.4,0-0.8-0.2-1-0.5c-0.3-0.3-0.4-0.7-0.4-1.1V57H157.4z"/>
<path class="st3" d="M160.6,57h0.8v0.3c0.1-0.1,0.2-0.2,0.3-0.3c0.1-0.1,0.3-0.1,0.5-0.1c0.2,0,0.4,0,0.6,0.2l-0.3,0.7
	c-0.1-0.1-0.3-0.1-0.4-0.1c-0.2,0-0.4,0.1-0.5,0.2c-0.2,0.2-0.2,0.5-0.2,0.8v1.8h-0.8L160.6,57z"/>
<path class="st3" d="M166,58c-0.2-0.3-0.6-0.4-0.9-0.4c-0.3,0-0.6,0.1-0.8,0.3c-0.2,0.2-0.3,0.5-0.3,0.8c0,0.3,0.1,0.6,0.3,0.8
	c0.2,0.2,0.4,0.3,0.7,0.3c0.4,0,0.7-0.2,1-0.4v0.9c-0.3,0.2-0.6,0.3-1,0.3c-0.5,0-0.9-0.2-1.3-0.5c-0.3-0.3-0.5-0.8-0.5-1.3
	c0-1,0.7-1.8,1.7-1.8c0.1,0,0.1,0,0.2,0c0.3,0,0.6,0.1,0.9,0.2L166,58z"/>
<path class="st3" d="M169.9,59.6c-0.1,0.2-0.3,0.5-0.6,0.6c-0.3,0.2-0.6,0.3-1,0.3c-0.4,0-0.8-0.1-1.1-0.4c-0.3-0.3-0.5-0.8-0.5-1.3
	c0-0.5,0.2-1,0.5-1.4c0.3-0.3,0.7-0.5,1.1-0.5c0.4,0,0.8,0.1,1.1,0.4c0.3,0.4,0.5,0.9,0.5,1.4v0.1h-2.4c0,0.3,0.1,0.5,0.3,0.7
	c0.2,0.2,0.4,0.2,0.6,0.2c0.2,0,0.4-0.1,0.5-0.2c0.1-0.1,0.2-0.2,0.3-0.4L169.9,59.6z M169.1,58.2c0-0.2-0.1-0.3-0.2-0.5
	c-0.1-0.1-0.3-0.2-0.5-0.2c-0.2,0-0.4,0.1-0.6,0.2c-0.1,0.1-0.2,0.3-0.2,0.4L169.1,58.2z"/>
<path class="st3" d="M172.4,57.8c-0.1-0.2-0.3-0.3-0.5-0.3c-0.1,0-0.2,0-0.2,0.1c0,0-0.1,0.1-0.1,0.2c0,0.1,0,0.2,0.1,0.2
	c0.1,0.1,0.2,0.1,0.3,0.1l0.4,0.2c0.2,0.1,0.3,0.2,0.5,0.3c0.2,0.2,0.3,0.4,0.3,0.6c0,0.3-0.1,0.6-0.3,0.8c-0.3,0.3-0.6,0.4-1,0.4
	c-0.3,0-0.5-0.1-0.7-0.2c-0.2-0.2-0.4-0.4-0.4-0.6l0.6-0.3c0,0.1,0.1,0.2,0.2,0.3c0.1,0.1,0.2,0.1,0.3,0.1c0.1,0,0.2,0,0.3-0.1
	c0.1-0.1,0.1-0.2,0.1-0.3c0-0.1,0-0.2-0.1-0.3c-0.1-0.1-0.2-0.2-0.3-0.2l-0.3-0.1c-0.2-0.1-0.3-0.2-0.5-0.3
	c-0.2-0.1-0.2-0.4-0.2-0.6c0-0.6,0.4-1,1-1c0,0,0.1,0,0.1,0c0.2,0,0.4,0.1,0.6,0.2c0.2,0.1,0.3,0.2,0.4,0.4L172.4,57.8z"/>
</svg>
