<svg width="32" height="22" viewBox="0 0 32 22" fill="none" xmlns="http://www.w3.org/2000/svg">
<g id="Layer_1-2">
<path id="Path 274" d="M26.7 18.7003C27.055 18.7017 27.4067 18.6329 27.735 18.4977C28.0632 18.3625 28.3614 18.1637 28.6124 17.9127C28.8634 17.6617 29.0623 17.3635 29.1974 17.0352C29.3326 16.707 29.4015 16.3552 29.4 16.0003V2.70027C29.4015 2.34529 29.3326 1.99354 29.1974 1.6653C29.0623 1.33707 28.8634 1.03884 28.6124 0.787834C28.3614 0.536825 28.0632 0.338 27.735 0.202828C27.4067 0.0676558 27.055 -0.00118838 26.7 0.000266734H5.3C4.59877 0.0183513 3.93284 0.311769 3.44627 0.81705C2.95971 1.32233 2.69162 1.99885 2.7 2.70027V16.0003C2.69162 16.7017 2.95971 17.3782 3.44627 17.8835C3.93284 18.3888 4.59877 18.6822 5.3 18.7003H1.3C0.955219 18.7003 0.624558 18.8372 0.380761 19.081C0.136964 19.3248 0 19.6555 0 20.0003C0 20.345 0.136964 20.6757 0.380761 20.9195C0.624558 21.1633 0.955219 21.3003 1.3 21.3003H30.6C30.9448 21.3003 31.2754 21.1633 31.5192 20.9195C31.763 20.6757 31.9 20.345 31.9 20.0003C31.9 19.6555 31.763 19.3248 31.5192 19.081C31.2754 18.8372 30.9448 18.7003 30.6 18.7003H26.7Z" fill="#BCBCBC"/>
<path id="Path 275" d="M6.5 1.90027H25.5C26.0299 1.90185 26.5377 2.11307 26.9125 2.4878C27.2872 2.86253 27.4984 3.37032 27.5 3.90027V14.9003C27.4984 15.4302 27.2872 15.938 26.9125 16.3127C26.5377 16.6875 26.0299 16.8987 25.5 16.9003H6.5C5.97005 16.8987 5.46227 16.6875 5.08753 16.3127C4.7128 15.938 4.50158 15.4302 4.5 14.9003V3.90027C4.50158 3.37032 4.7128 2.86253 5.08753 2.4878C5.46227 2.11307 5.97005 1.90185 6.5 1.90027Z" fill="white"/>
<path id="Path 276" d="M19.8996 7.40024L19.3996 6.60024L19.6996 5.80024L18.9996 5.20024L18.8996 4.30024L17.9996 4.20024L17.5996 3.40024L16.6996 3.60024L15.9996 3.00024L15.2996 3.60024L14.3996 3.40024L13.9996 4.20024L13.0996 4.40024L12.9996 5.20024L12.2996 5.70024L12.5996 6.50024L12.0996 7.30024L12.6996 8.00024L12.5996 8.90024L13.3996 9.30024L13.6996 10.2002H14.5996L15.1996 10.9002L15.9996 10.5002L16.7996 10.9002L17.3996 10.2002H18.2996L18.5996 9.30024L19.3996 8.90024L19.2996 8.00024L19.8996 7.40024ZM15.9996 4.90024C16.4052 4.89027 16.8046 5.0008 17.1473 5.21785C17.4901 5.43489 17.7607 5.7487 17.9251 6.11959C18.0895 6.49048 18.1402 6.90179 18.0708 7.30149C18.0014 7.70119 17.815 8.07134 17.5352 8.36511C17.2554 8.65888 16.8948 8.86308 16.499 8.95188C16.1031 9.04069 15.6898 9.01011 15.3114 8.86401C14.9329 8.71791 14.6063 8.46285 14.3728 8.1311C14.1393 7.79935 14.0094 7.40581 13.9996 7.00024C13.9903 6.73034 14.0349 6.46128 14.1308 6.20883C14.2268 5.95638 14.3721 5.72561 14.5584 5.53004C14.7446 5.33447 14.9681 5.17804 15.2155 5.06989C15.463 4.96175 15.7296 4.90407 15.9996 4.90024Z" fill="#F8A81A"/>
<path id="Path 277" d="M18.1998 10.7003H17.6998L17.2998 11.0003L16.9998 11.2003L16.5998 11.1003L15.9998 10.9003L15.3998 11.1003L14.9998 11.2003L14.6998 11.0003L14.3998 10.7003H13.7998L12.7998 13.5003C12.7998 13.6003 12.8998 13.6003 12.9998 13.6003L14.0998 13.2003H14.2998L14.8998 14.0003C14.9998 14.1003 15.0998 14.1003 15.0998 14.0003L15.9998 11.7003L16.9998 15.0003C16.9998 15.1003 17.1998 15.1003 17.1998 15.0003L17.8998 14.2003H18.0998L19.1998 14.7003C19.2998 14.7003 19.3998 14.7003 19.3998 14.6003L18.1998 10.7003Z" fill="#C04C0B"/>
</g>
</svg>
