<svg width="29" height="19" viewBox="0 0 29 19" fill="none" xmlns="http://www.w3.org/2000/svg">
<g id="Layer_1-2">
<path id="Path 258" d="M19.0998 8.15029C19.8514 8.15029 20.5861 7.92743 21.211 7.50988C21.8359 7.09233 22.3229 6.49885 22.6105 5.80449C22.8982 5.11013 22.9734 4.34608 22.8268 3.60895C22.6802 2.87182 22.3183 2.19473 21.7868 1.66329C21.2554 1.13185 20.5783 0.769934 19.8411 0.623311C19.104 0.476687 18.34 0.551939 17.6456 0.839552C16.9512 1.12717 16.3578 1.61422 15.9402 2.23913C15.5227 2.86403 15.2998 3.59873 15.2998 4.35029C15.2998 4.84932 15.3981 5.34345 15.5891 5.80449C15.78 6.26553 16.0599 6.68444 16.4128 7.0373C17.1254 7.74994 18.092 8.15029 19.0998 8.15029Z" fill="#BCBCBC"/>
<path id="Path 259" d="M8.89961 8.15029C9.65118 8.15029 10.3859 7.92743 11.0108 7.50988C11.6357 7.09233 12.1227 6.49885 12.4104 5.80449C12.698 5.11013 12.7732 4.34608 12.6266 3.60895C12.48 2.87182 12.1181 2.19473 11.5866 1.66329C11.0552 1.13185 10.3781 0.769934 9.64095 0.623311C8.90382 0.476687 8.13977 0.551939 7.44541 0.839552C6.75105 1.12717 6.15757 1.61422 5.74003 2.23913C5.32248 2.86403 5.09961 3.59873 5.09961 4.35029C5.09961 4.84932 5.1979 5.34345 5.38887 5.80449C5.57984 6.26553 5.85974 6.68444 6.2126 7.0373C6.92524 7.74994 7.89179 8.15029 8.89961 8.15029Z" fill="#43A7DE"/>
<path id="Path 260" d="M8.9 10.7502C5.9 10.7502 0 12.2502 0 15.2502V17.1502C0.00616057 17.4931 0.145102 17.8202 0.387577 18.0627C0.630052 18.3051 0.957144 18.4441 1.3 18.4502H16.6C16.9429 18.4441 17.2699 18.3051 17.5124 18.0627C17.7549 17.8202 17.8938 17.4931 17.9 17.1502V15.2502C17.8 12.2502 11.9 10.7502 8.9 10.7502Z" fill="#43A7DE"/>
<path id="Path 261" d="M19.1004 10.7503C18.6978 10.7338 18.2947 10.7674 17.9004 10.8503C18.6303 11.3152 19.2381 11.9482 19.6731 12.6964C20.1081 13.4445 20.3574 14.286 20.4004 15.1503V17.0503C20.3828 17.4897 20.3157 17.9258 20.2004 18.3503H26.8004C27.1432 18.3441 27.4703 18.2052 27.7128 17.9627C27.9553 17.7202 28.0942 17.3931 28.1004 17.0503V15.1503C28.0004 12.2503 22.1004 10.7503 19.1004 10.7503Z" fill="#BCBCBC"/>
</g>
</svg>
