<svg width="25" height="24" viewBox="0 0 25 24" fill="none" xmlns="http://www.w3.org/2000/svg">
<g id="Layer 1 2">
<path id="Path 281" d="M21.3 2.25937e-05H2.70002C2.34505 -0.00143252 1.99329 0.0674116 1.66506 0.202584C1.33682 0.337756 1.0386 0.536581 0.78759 0.78759C0.536581 1.0386 0.337756 1.33682 0.202584 1.66506C0.0674116 1.99329 -0.00143252 2.34505 2.25937e-05 2.70002V21.4C0.0181071 22.1013 0.311525 22.7672 0.816806 23.2537C1.32209 23.7403 1.99861 24.0084 2.70002 24H21.4C21.755 24.0015 22.1068 23.9326 22.435 23.7975C22.7632 23.6623 23.0614 23.4635 23.3125 23.2125C23.5635 22.9614 23.7623 22.6632 23.8975 22.335C24.0326 22.0068 24.1015 21.655 24.1 21.3V2.70002C24.0638 1.97844 23.7541 1.29774 23.234 0.796232C22.714 0.294725 22.0224 0.0100391 21.3 2.25937e-05ZM12 20C11.5533 19.9869 11.1284 19.8036 10.8124 19.4876C10.4964 19.1716 10.3131 18.7468 10.3 18.3C10.2908 17.8635 10.4532 17.4408 10.7525 17.1229C11.0517 16.805 11.4638 16.6172 11.9 16.6C12.3365 16.5908 12.7592 16.7532 13.0771 17.0525C13.3951 17.3517 13.5828 17.7638 13.6 18.2V18.3C13.6137 18.5184 13.5824 18.7373 13.5082 18.9431C13.4339 19.1489 13.3182 19.3373 13.1683 19.4966C13.0183 19.6559 12.8373 19.7828 12.6363 19.8694C12.4354 19.956 12.2188 20.0005 12 20ZM16 10.1C15 11.6 14 12 13.5 13C13.2147 13.5899 13.1103 14.251 13.2 14.9H10.8C10.6788 14.0129 10.8178 13.1097 11.2 12.3C11.8 11.1 13.1 10.4 13.8 9.40002C14.0951 8.95928 14.2078 8.42134 14.1146 7.8992C14.0214 7.37707 13.7294 6.9114 13.3 6.60002C13.1205 6.45425 12.9101 6.35143 12.6848 6.29944C12.4595 6.24744 12.2252 6.24764 12 6.30002C11.4351 6.32107 10.8932 6.52879 10.4589 6.89068C10.0246 7.25256 9.7226 7.74819 9.60002 8.30002L7.40002 7.40002C7.68755 6.40713 8.29366 5.53637 9.12493 4.92195C9.95619 4.30754 10.9665 3.98358 12 4.00002C12.7825 3.96108 13.5618 4.1247 14.2625 4.47507C14.9632 4.82543 15.5617 5.35068 16 6.00002C16.392 6.61189 16.6004 7.32334 16.6004 8.05002C16.6004 8.77671 16.392 9.48815 16 10.1Z" fill="#43A7DE"/>
</g>
</svg>
